<svg width="54" height="54" viewBox="0 0 54 54" fill="none" xmlns="http://www.w3.org/2000/svg">
  <defs>
    <linearGradient id="geoGrad" x1="0" y1="0" x2="54" y2="54" gradientUnits="userSpaceOnUse">
      <stop stop-color="#6366f1"/>
      <stop offset="1" stop-color="#ec4899"/>
    </linearGradient>
  </defs>
  
  <!-- Верхняя часть буквы S -->
  <path d="M36 10C36 10 44 10 44 18C44 26 36 27 27 27C18 27 10 28 10 36C10 44 18 44 18 44" 
        stroke="url(#geoGrad)" stroke-width="8" stroke-linecap="round" stroke-linejoin="round"/>
        
  <!-- Нижняя часть буквы S (переплетение) -->
  <path d="M18 44C18 44 10 44 10 36C10 28 18 27 27 27C36 27 44 26 44 18C44 10 36 10 36 10" 
        stroke="url(#geoGrad)" stroke-width="8" stroke-linecap="round" stroke-linejoin="round" opacity="0.3"/>
        
  <!-- Акцентная точка -->
  <circle cx="42" cy="12" r="4" fill="#fbbf24"/>
</svg>